<?xml version="1.0" encoding="utf-8"?>
<!-- Generator: Adobe Illustrator 24.1.2, SVG Export Plug-In . SVG Version: 6.00 Build 0)  -->
<svg version="1.1" id="Layer_7" xmlns="http://www.w3.org/2000/svg" xmlns:xlink="http://www.w3.org/1999/xlink" x="0px" y="0px"
	 viewBox="0 0 1365.5 535.7" style="enable-background:new 0 0 1365.5 535.7; fill: #fff;" xml:space="preserve">
<style type="text/css">
	.st0{fill:#FFFFFF;}
	.st1{fill:#FC0000;}
	.st2{fill:#0750C6;}
</style>
<path d="M235.6,425.4l9.2-11c6.4,5.3,13.1,8.6,21.2,8.6c6.4,0,10.2-2.5,10.2-6.7v-0.2c0-3.9-2.4-6-14.3-9
	c-14.3-3.6-23.5-7.6-23.5-21.7v-0.2c0-12.9,10.3-21.4,24.8-21.4c10.3,0,19.1,3.2,26.3,9l-8.1,11.7c-6.3-4.4-12.5-7-18.4-7
	c-6,0-9.1,2.7-9.1,6.2v0.2c0,4.7,3,6.2,15.3,9.3c14.4,3.7,22.5,8.9,22.5,21.3v0.2c0,14.1-10.7,22-26,22
	C254.9,436.7,244.1,433,235.6,425.4z"/>
<path d="M344.7,363.6c-21.9,0-37.8,16.5-37.8,36.6v0.2c0,20.1,15.7,36.4,37.6,36.4c21.9,0,37.8-16.5,37.8-36.6v-0.2
	C382.3,379.9,366.6,363.6,344.7,363.6z M366,400.5c0,12.1-8.7,22.1-21.3,22.1c-12.6,0-21.5-10.1-21.5-22.3v-0.2
	c0-12.1,8.7-22.1,21.3-22.1c12.6,0,21.5,10.1,21.5,22.3V400.5z"/>
<polygon points="400.2,364.9 414.6,364.9 447.8,408.5 447.8,364.9 463.2,364.9 463.2,435.7 449.9,435.7 415.6,390.7 415.6,435.7 
	400.2,435.7 "/>
<path d="M483,400.5v-0.2c0-20.1,15.7-36.6,37.2-36.6c12.8,0,20.4,3.4,27.8,9.7l-9.8,11.8c-5.5-4.6-10.3-7.2-18.5-7.2
	c-11.3,0-20.3,10-20.3,22.1v0.2c0,13,8.9,22.5,21.5,22.5c5.7,0,10.7-1.4,14.7-4.3v-10.1h-15.7v-13.5h30.8v30.8
	c-7.3,6.2-17.3,11.2-30.3,11.2C498.2,436.9,483,421.4,483,400.5z"/>
<path d="M604.9,400.5v-0.2c0-20.1,15.2-36.6,37-36.6c13.4,0,21.4,4.5,27.9,10.9l-9.9,11.4c-5.5-5-11-8-18.1-8
	c-11.9,0-20.5,9.9-20.5,22.1v0.2c0,12.1,8.4,22.3,20.5,22.3c8.1,0,13.1-3.2,18.6-8.3l9.9,10c-7.3,7.8-15.4,12.6-29.1,12.6
	C620.4,436.9,604.9,420.8,604.9,400.5z"/>
<path d="M721.5,363.6c-21.9,0-37.8,16.5-37.8,36.6v0.2c0,20.1,15.7,36.4,37.6,36.4c21.9,0,37.8-16.5,37.8-36.6v-0.2
	C759,379.9,743.3,363.6,721.5,363.6z M742.7,400.5c0,12.1-8.7,22.1-21.3,22.1S700,412.4,700,400.3v-0.2c0-12.1,8.7-22.1,21.3-22.1
	c12.5,0,21.5,10.1,21.5,22.3V400.5z"/>
<polygon points="777,364.9 791.3,364.9 824.5,408.5 824.5,364.9 839.9,364.9 839.9,435.7 826.7,435.7 792.3,390.7 792.3,435.7 
	777,435.7 "/>
<polygon points="878,379.2 856.4,379.2 856.4,364.9 915.1,364.9 915.1,379.2 893.6,379.2 893.6,435.7 878,435.7 "/>
<polygon points="933.2,364.9 986.6,364.9 986.6,378.7 948.7,378.7 948.7,393.1 982.1,393.1 982.1,407 948.7,407 948.7,421.9 
	987.1,421.9 987.1,435.7 933.2,435.7 "/>
<path d="M1002.1,425.4l9.2-11c6.4,5.3,13.1,8.6,21.2,8.6c6.4,0,10.2-2.5,10.2-6.7v-0.2c0-3.9-2.4-6-14.3-9
	c-14.3-3.6-23.5-7.6-23.5-21.7v-0.2c0-12.9,10.3-21.4,24.8-21.4c10.3,0,19.1,3.2,26.3,9l-8.1,11.7c-6.3-4.4-12.5-7-18.4-7
	c-6,0-9.1,2.7-9.1,6.2v0.2c0,4.7,3,6.2,15.3,9.3c14.4,3.7,22.5,8.9,22.5,21.3v0.2c0,14.1-10.7,22-26,22
	C1021.5,436.7,1010.6,433,1002.1,425.4z"/>
<polygon points="1092.7,379.2 1071.2,379.2 1071.2,364.9 1129.9,364.9 1129.9,379.2 1108.3,379.2 1108.3,435.7 1092.7,435.7 "/>
<path d="M1181.5,132.7c7.9-9.1,13.2-14.5,12-20.8c-1.2-6.3-22.7-10.7-32.3-1.9c-28.3-22.4-22.5,3.8-18.4,9.7
	c-33.4,23.5-56,85.3-37.8,133.6c17.8,47.2,71.4,53,99.5,19.8C1229.5,243.7,1225.1,189.8,1181.5,132.7 M1159.8,268.5
	c-18.3-0.9-28.7-22.5-27.4-44.6c2.2-38.9,34.8-78.2,34.8-78.2c7.6,6.9,30.5,44.5,29.2,73.3C1195.1,247,1178,269.5,1159.8,268.5z"/>
<path d="M134.3,74.9C52,83.9,24.6,131.9,22,138.4c-1.9,5-1.4,6.1,4,6.1c5.4,0,80.2-8.3,101.8-7.2c22,1.1,20.6,25.3,3.3,30.3
	c-70.8,19.9-111.9,70.4-111.9,96.4c0,19.9,14.4,29.2,31.1,29.2c49.5,0,99.5-51.4,108.8-62.7c5.9-7.1,9.5-2.6,9.5,0.5
	c0.1,41.8-44.8,91.1-105,91.1c-43,0-63.5-32.9-63.5-60.3c0-52,56.3-96.4,56.3-96.4s-28.5,1.1-38.3,1.1c-7.9,0-13.4-5.9-13.6-12.4
	c-2.7-67.6,67-119.8,130-115.2C159.3,40.8,162.1,72.7,134.3,74.9z"/>
<path d="M207,232.8c1.2,12.4,9.7,25.5,21.2,12.9c29.1-33.7,26.2-126.7,25.5-136.8c-0.7-10.1,4.7-12.9,8.6-7.5
	c3.9,5.4,22.6,35.2,22.6,80.8c0,55.3-33,111.9-58.8,111.9c-58.9,0-53.5-134.9-35.9-179.4c9.1-23.1,33.4-13.1,33.4,3.2
	C223.5,141.6,203.4,196.5,207,232.8z"/>
<path d="M505.8,127.3c0,0,9.3-12.7,3.7-19.9c-6.3-8.1-26.6-10.6-45.5,10.7c-25,28-42.5,87-23.6,136.6c18.1,47.4,68.7,51.4,92.2,15.5
	C553.6,238.1,548.1,184.7,505.8,127.3z M492.6,262.8c-16.5,0-25.7-21.4-25.7-44.5c0-40.9,29.4-78.1,29.4-78.1
	c8.1,10.3,27.6,39.4,27.6,68.8C523.8,238.5,509.1,262.8,492.6,262.8z"/>
<path d="M354.5,194.8c34.3-2.2,77.3-28.9,77.3-57.4c0-21.1-22-36.3-50.5-36.3c-28.5,0-60,9.6-71.9,16.8c-15.5,9-4,30.3,10.5,24.6
	c0,0-5.4,25.3-6.9,38.6c-11.7-1.4-14.1,0.7-13.4,3.2c0.7,2.5,5.8,4.7,11.6,11.9c-1.8,15.9-5,86.5-4.3,92.7c0.7,6.2,4.5,7.2,9.7,0.7
	c4.7-5.8,14.8-19.7,19.4-72.4c5.4,4.7,20.2,24.5,38.3,47.7c26.5,33.9,35.2,36.4,46.1,40.2c5.9,2.1,11.9-1.3,7.6-7.3
	C410.4,273.3,388.3,224.4,354.5,194.8z M342.6,138.1c0,0,41.2-10.5,55.2-9c12.3,1.3,14.8,6.5,8.6,16.2
	c-14.7,22.8-48.5,30.7-66.7,30.4C341.1,157.2,342.6,138.1,342.6,138.1z"/>
<path d="M875.3,101.8c10.8,3.5,20.2,22,17.6,52.2c-4.3,49.3-37.5,110.6-42.3,133.9c-1.6,7.8-7.7,7.4-10.4,3.1
	c-2.6-4.1-8.2-16.7-6.7-47.7c2.1-42.6,34.3-100.9,33.4-137.6C866.6,100.8,870.5,100.2,875.3,101.8z"/>
<path d="M984.6,136.6c-37.9,0-49.7,11.7-49.7,20.6c0,23.8,41.2,22.1,60.2,24.3c11,1.3,25.3,8.4,25.3,27.4c0,21-26.3,37.9-54.2,53.2
	c-29.3,16.1-59.6,32-73.4,41.5c-7.1,4.9-11.7-1.4-8.3-8.1c9.8-19.1,28.2-37.1,53.3-54.2c36.8-25,60.4-36.3,50.6-39.9
	c-5.5-2-20.5-3.1-35.9-6c-26.5-4.3-43.1-19.7-43.1-42.1c0-36.3,32.6-52.4,77.7-52.4C1010.9,101,1013.9,136.6,984.6,136.6z"/>
<path d="M1056,101.2c12,1,32.5,17.1,30.2,58.6c-1.8,32.6-29.5,102.7-31.9,128.5c-0.5,5.3-5.7,8.2-9.7,3.3
	c-7.8-9.5-11.1-19.8-11.1-49.1c0-29.3,25.1-106.4,10.4-134.8C1040.6,101.8,1049.4,100.6,1056,101.2z"/>
<path d="M1053.9,14.3c-2.5-9.9,8.1-11,15.6-4.9c4.8,4,28.9,27.8,28.9,56.6c0,33-45.1,28.7-44.3,1.7
	C1054.4,58.2,1059.6,35.1,1053.9,14.3z"/>
<path d="M1354.2,294.7c-28.8-24.9-26.1-96.1-27.5-124.2c-1.4-27.7-36.2-25.6-44.7-14c-6.1,35.5-8.2,99.3-26.2,134.3
	c-2.6,4.7-9.2,3.9-9.9-1.5c-0.7-5.7-7.4-20.5-7.4-62.4c0-41.9,4.9-102.3,38.7-123.3c6.2-3.3,10.4-3.3,10.6,0.2
	c0.2,3.1-0.9,12.9-1.1,19.3c0,0,12.8-9.7,34.3-9.7c16.6,0,44.5,17.3,44.5,50.9c0,44-8.1,90.7-2.2,127
	C1364.1,296.5,1358.1,298,1354.2,294.7z"/>
<g>
	<path class="st0" d="M807,136.1c5.3-12.1,9.2-24.6,10.3-37.9l-240.1,21.6c-0.5,3.9-1,7.7-1.4,11.6c-2,21.4,0.8,42,10.6,61.2
		c3.6,7,8.2,13.6,12.4,20.3l168.5-16.4c2.8-3.4,5.7-6.7,8.4-10.1C788,170.8,799,154.4,807,136.1z"/>
	<path class="st1" d="M810.9,100.6c0.9-9,7.9-18.8,6.4-27.7c-1.5-9.1-2.2-18.9-7-26.9c-6.9-11.5-22.2-22.3-35.7-24
		c-11-1.4-27.8-1.4-37.7,3.5c-14.5,7.3-23.1,18-32.8,30.8c-5.7,7.6-12.6,15.2-14.8,24.7c-0.2,0.9-1.3,6.7-1.8,7.5
		c-2.2,4.2-0.9,4.1-4,0.7c-1.9-2.1-1.1-5.5-1.9-8.1c-1.6-5.9-7.3-11-11.3-15.6C661.2,54.6,647,50.6,633.1,52
		c-9.5,1-23.9,6.7-30.7,13.2c-15.4,14.4-21.9,35.8-18.7,56.5l227-20.4C810.8,101.1,810.9,100.9,810.9,100.6z"/>
	<path class="st2" d="M610,232.1c12.7,13.3,33.1,25.6,47.3,37c7.2,5.7,13.3,9.8,19.2,17c1.1,1.3,8.4,6.5,9.5,8
		c3.5-8.8,16.6-21.5,24.9-30.7c12.6-13.9,32.5-29.8,45.1-43.6c7.6-8.4,11.4-16.5,7.5-25.5l-159.4,15.5
		C599.9,217.8,604.1,226,610,232.1z"/>
</g>
<path d="M685.6,67.8c5.3-9,11.4-17.4,18.6-25c14.8-15.8,32-27.8,53.1-34c30.2-8.9,56.8,3.8,73.2,25.8c9.2,12.3,14.3,26.2,16.5,41.3
	c4.9,33.1-3.4,63.1-20.8,91.1c-12,19.2-26.9,36.1-43.3,51.6c-14.8,14-30.1,27.4-45.2,41.1c-11.9,10.8-23.9,21.5-33.9,34.2
	c-4.6,5.8-8.5,12-11.1,19.1c-1.5,4.2-5.7,5.1-8.2,1.6c-5.9-8.2-13.8-14-22-19.4c-13.3-8.7-26.8-17-40-25.9
	c-16-10.7-30.7-23-42.8-38.1c-13.8-17.2-22.7-36.7-26.1-58.6c-3.4-22.2-2.3-44.2,4.1-65.9c5.4-18.1,14.6-33.9,28.7-46.6
	c11.3-10.3,24.2-17.9,39.5-20.6c8-1.4,15.9-0.2,23.7,2c11.8,3.3,22.3,9.1,30.4,18.5C682,62.2,683.7,65,685.6,67.8z M763.4,194.3
	c2.6-3.2,5.3-6.3,7.9-9.6c11.7-14.7,22.1-30.3,29.7-47.6c5-11.5,8.7-23.3,9.7-35.8c0.1-0.2,0.2-0.4,0.2-0.6c0.9-9,0.6-18-0.9-27
	c-1.5-9.1-4.2-17.8-8.9-25.8c-6.9-11.5-16.7-19-30.2-20.7c-11-1.4-21.5,0.9-31.4,5.8c-14.5,7.3-26,18.1-35.7,31
	c-5.7,7.6-10.8,15.5-13,25c-0.2,0.9-0.6,1.7-1,2.4c-2.2,4.2-6,5-9.2,1.5c-1.9-2.1-3.4-4.7-4.2-7.4c-1.6-5.9-4.2-11.2-8.2-15.8
	C659,59,646.9,54.7,633,56.1c-9.5,1-17.5,5.7-24.4,12.2c-15.4,14.4-21.9,33.1-24.9,53.4c-0.4,3.7-0.9,7.3-1.3,11
	c-1.9,20.2,0.8,39.7,10,57.9c3.4,6.7,7.8,12.8,11.7,19.2c5.5,6.5,10.7,13.3,16.5,19.4c12.7,13.3,27.2,24.4,41.5,35.8
	c7.2,5.7,14.4,11.4,20.2,18.6c1.1,1.3,2,2.8,3.1,4.3c3.5-8.8,9-17.7,17.4-26.9c12.6-13.9,25.4-27.5,38.1-41.3
	C748.5,211.2,755.9,202.7,763.4,194.3z"/>
<path d="M248.8,475h25c7.1,0,12.9,2.2,16.5,5.8c2.8,2.8,4.5,6.9,4.5,11.5v0.2c0,9.6-6.6,15.3-15.8,16.9l17.8,23.7h-8.1l-16.8-22.6
	h-16.6v22.6h-6.6V475z M273.2,504.6c8.7,0,14.9-4.5,14.9-12v-0.2c0-7.1-5.5-11.5-14.9-11.5h-17.9v23.6H273.2z"/>
<path d="M314.4,504.2v-0.2c0-16,12-30,29.7-30c17.7,0,29.5,13.9,29.5,29.9v0.2c0,16-12,30-29.7,30
	C326.3,534.1,314.4,520.3,314.4,504.2z M366.9,504.2v-0.2c0-13.2-9.6-24-22.9-24s-22.7,10.6-22.7,23.8v0.2c0,13.2,9.6,24,22.9,24
	S366.9,517.4,366.9,504.2z"/>
<path d="M407.7,481.1h-19.5V475h45.6v6.1h-19.5v52h-6.6V481.1z"/>
<path d="M472,481.1h-19.5V475h45.6v6.1h-19.5v52H472V481.1z"/>
<path d="M518.7,475h42v6h-35.4v19.8H557v6h-31.7v20.3h35.9v6h-42.4V475z"/>
<path d="M582.6,475h25c7.1,0,12.9,2.2,16.5,5.8c2.8,2.8,4.5,6.9,4.5,11.5v0.2c0,9.6-6.6,15.3-15.8,16.9l17.8,23.7h-8.1l-16.8-22.6
	h-16.6v22.6h-6.6V475z M607,504.6c8.7,0,14.9-4.5,14.9-12v-0.2c0-7.1-5.5-11.5-14.9-11.5h-17.9v23.6H607z"/>
<path d="M652.1,475h20.2c18.3,0,30.9,12.5,30.9,28.9v0.2c0,16.3-12.6,29-30.9,29h-20.2V475z M658.6,481.1v46h13.6
	c14.7,0,24.1-10,24.1-22.8v-0.2c0-12.9-9.4-23-24.1-23H658.6z"/>
<path d="M743.4,474.6h6.1l26.5,58.5H769l-6.8-15.4h-31.6l-6.9,15.4H717L743.4,474.6z M759.6,511.8l-13.2-29.5l-13.3,29.5H759.6z"/>
<path d="M796.3,475h6.6l21.2,31.7l21.2-31.7h6.6v58.1h-6.6v-47.1l-21.2,31.1h-0.3l-21.2-31v47h-6.4V475z"/>
<path d="M912,527.9l21.3-18.8c9-8.1,12.3-12.6,12.3-18.5c0-6.9-5.5-11.3-11.8-11.3c-6.7,0-11.1,3.5-15.8,10.1l-4.9-3.5
	c5.3-7.9,10.8-12.5,21.2-12.5c10.6,0,18.2,7.1,18.2,16.6v0.2c0,8.6-4.5,13.9-14.9,22.8L921.9,527H953v6H912V527.9z"/>
<path d="M971.3,503.8v-0.2c0-16.5,9.8-30.4,24.9-30.4c15.1,0,24.7,13.8,24.7,30.2v0.2c0,16.5-9.7,30.4-24.9,30.4
	C980.8,534.1,971.3,520.3,971.3,503.8z M1014,503.8v-0.2c0-12.9-7.1-24.4-18-24.4c-11,0-17.9,11.3-17.9,24.2v0.2
	c0,12.9,7.1,24.4,18.1,24.4S1014,516.7,1014,503.8z"/>
<path d="M1037.1,527.9l21.3-18.8c9-8.1,12.3-12.6,12.3-18.5c0-6.9-5.5-11.3-11.8-11.3c-6.7,0-11.1,3.5-15.8,10.1l-4.9-3.5
	c5.3-7.9,10.8-12.5,21.2-12.5c10.6,0,18.2,7.1,18.2,16.6v0.2c0,8.6-4.5,13.9-14.9,22.8L1047,527h31.2v6h-41.1V527.9z"/>
<path d="M1106.3,480.7l-11.1,3.4l-1.6-5.4l14.4-5h4.9v59.2h-6.6V480.7z"/>
</svg>
